<svg width="183" height="44" viewBox="0 0 183 44" fill="none" xmlns="http://www.w3.org/2000/svg">
<rect width="183" height="44" rx="22" fill="url(#paint0_linear)"/>
<path d="M37.6406 18.6797C37.6406 18.0755 37.4193 17.5964 36.9766 17.2422C36.5391 16.8828 35.9219 16.7031 35.125 16.7031C34.4583 16.7031 33.8984 16.888 33.4453 17.2578C32.9974 17.6224 32.7734 18.0755 32.7734 18.6172H31.2734C31.2734 18.013 31.4375 17.4714 31.7656 16.9922C32.099 16.513 32.5625 16.1406 33.1562 15.875C33.75 15.6042 34.4062 15.4688 35.125 15.4688C36.3958 15.4688 37.3828 15.7552 38.0859 16.3281C38.7891 16.8958 39.1406 17.6875 39.1406 18.7031C39.1406 19.2292 38.9792 19.7083 38.6562 20.1406C38.3333 20.5729 37.8828 20.9141 37.3047 21.1641C38.6432 21.612 39.3125 22.5 39.3125 23.8281C39.3125 24.849 38.9323 25.6589 38.1719 26.2578C37.4115 26.8568 36.3958 27.1562 35.125 27.1562C34.3698 27.1562 33.6823 27.0234 33.0625 26.7578C32.4479 26.487 31.9688 26.1042 31.625 25.6094C31.2812 25.1146 31.1094 24.526 31.1094 23.8438H32.6094C32.6094 24.4427 32.8464 24.9427 33.3203 25.3438C33.7943 25.7396 34.3958 25.9375 35.125 25.9375C35.9427 25.9375 36.5938 25.7474 37.0781 25.3672C37.5677 24.987 37.8125 24.4844 37.8125 23.8594C37.8125 22.526 36.987 21.8464 35.3359 21.8203H33.9297V20.5859H35.3281C36.0885 20.5703 36.6641 20.3984 37.0547 20.0703C37.4453 19.7422 37.6406 19.2786 37.6406 18.6797ZM46.2969 27C46.2135 26.8333 46.1458 26.5365 46.0938 26.1094C45.4219 26.8073 44.6198 27.1562 43.6875 27.1562C42.8542 27.1562 42.1693 26.9219 41.6328 26.4531C41.1016 25.9792 40.8359 25.3802 40.8359 24.6562C40.8359 23.776 41.1693 23.0938 41.8359 22.6094C42.5078 22.1198 43.4505 21.875 44.6641 21.875H46.0703V21.2109C46.0703 20.7057 45.9193 20.3047 45.6172 20.0078C45.3151 19.7057 44.8698 19.5547 44.2812 19.5547C43.7656 19.5547 43.3333 19.6849 42.9844 19.9453C42.6354 20.2057 42.4609 20.5208 42.4609 20.8906H41.0078C41.0078 20.4688 41.1562 20.0625 41.4531 19.6719C41.7552 19.276 42.1615 18.9635 42.6719 18.7344C43.1875 18.5052 43.7526 18.3906 44.3672 18.3906C45.3411 18.3906 46.1042 18.6354 46.6562 19.125C47.2083 19.6094 47.4948 20.2786 47.5156 21.1328V25.0234C47.5156 25.7995 47.6146 26.4167 47.8125 26.875V27H46.2969ZM43.8984 25.8984C44.3516 25.8984 44.7812 25.7812 45.1875 25.5469C45.5938 25.3125 45.888 25.0078 46.0703 24.6328V22.8984H44.9375C43.1667 22.8984 42.2812 23.4167 42.2812 24.4531C42.2812 24.9062 42.4323 25.2604 42.7344 25.5156C43.0365 25.7708 43.4245 25.8984 43.8984 25.8984ZM55.25 18.5469H56.6953V27H55.25V20.8359L51.3516 27H49.9062V18.5469H51.3516V24.7188L55.25 18.5469ZM55.6406 15.4688C55.6406 16.099 55.4245 16.6068 54.9922 16.9922C54.5651 17.3724 54.0026 17.5625 53.3047 17.5625C52.6068 17.5625 52.0417 17.3698 51.6094 16.9844C51.1771 16.599 50.9609 16.0938 50.9609 15.4688H52.1406C52.1406 15.8333 52.2396 16.1198 52.4375 16.3281C52.6354 16.5312 52.9245 16.6328 53.3047 16.6328C53.6693 16.6328 53.9531 16.5312 54.1562 16.3281C54.3646 16.125 54.4688 15.8385 54.4688 15.4688H55.6406ZM65.2969 19.7188H62.4609V27H61.0156V19.7188H58.2344V18.5469H65.2969V19.7188ZM72.1719 18.5469H73.6172V27H72.1719V20.8359L68.2734 27H66.8281V18.5469H68.2734V24.7188L72.1719 18.5469ZM80.0391 27V18.5469H83.3359C84.4609 18.5469 85.3229 18.7448 85.9219 19.1406C86.526 19.5312 86.8281 20.1068 86.8281 20.8672C86.8281 21.2578 86.7109 21.612 86.4766 21.9297C86.2422 22.2422 85.8958 22.4818 85.4375 22.6484C85.9479 22.7682 86.3568 23.0026 86.6641 23.3516C86.9766 23.7005 87.1328 24.1172 87.1328 24.6016C87.1328 25.3776 86.8464 25.9714 86.2734 26.3828C85.7057 26.7943 84.901 27 83.8594 27H80.0391ZM81.4844 23.2891V25.8359H83.875C84.4792 25.8359 84.9297 25.724 85.2266 25.5C85.5286 25.276 85.6797 24.9609 85.6797 24.5547C85.6797 23.7109 85.0599 23.2891 83.8203 23.2891H81.4844ZM81.4844 22.1328H83.3516C84.7057 22.1328 85.3828 21.737 85.3828 20.9453C85.3828 20.1536 84.7422 19.7448 83.4609 19.7188H81.4844V22.1328ZM95.6484 23.3984H94.5938V27H93.1406V18.5469H94.5938V22.125H95.5391L98.3828 18.5469H100.133L96.7891 22.6094L100.414 27H98.5781L95.6484 23.3984ZM106.875 27C106.792 26.8333 106.724 26.5365 106.672 26.1094C106 26.8073 105.198 27.1562 104.266 27.1562C103.432 27.1562 102.747 26.9219 102.211 26.4531C101.68 25.9792 101.414 25.3802 101.414 24.6562C101.414 23.776 101.747 23.0938 102.414 22.6094C103.086 22.1198 104.029 21.875 105.242 21.875H106.648V21.2109C106.648 20.7057 106.497 20.3047 106.195 20.0078C105.893 19.7057 105.448 19.5547 104.859 19.5547C104.344 19.5547 103.911 19.6849 103.562 19.9453C103.214 20.2057 103.039 20.5208 103.039 20.8906H101.586C101.586 20.4688 101.734 20.0625 102.031 19.6719C102.333 19.276 102.74 18.9635 103.25 18.7344C103.766 18.5052 104.331 18.3906 104.945 18.3906C105.919 18.3906 106.682 18.6354 107.234 19.125C107.786 19.6094 108.073 20.2786 108.094 21.1328V25.0234C108.094 25.7995 108.193 26.4167 108.391 26.875V27H106.875ZM104.477 25.8984C104.93 25.8984 105.359 25.7812 105.766 25.5469C106.172 25.3125 106.466 25.0078 106.648 24.6328V22.8984H105.516C103.745 22.8984 102.859 23.4167 102.859 24.4531C102.859 24.9062 103.01 25.2604 103.312 25.5156C103.615 25.7708 104.003 25.8984 104.477 25.8984ZM114.07 19.0312C115.133 19.0312 115.982 19.388 116.617 20.1016C117.258 20.8099 117.578 21.7448 117.578 22.9062V23.0391C117.578 23.8359 117.424 24.5495 117.117 25.1797C116.81 25.8047 116.367 26.2917 115.789 26.6406C115.216 26.9844 114.555 27.1562 113.805 27.1562C112.669 27.1562 111.755 26.7786 111.062 26.0234C110.37 25.263 110.023 24.2448 110.023 22.9688V22.2656C110.023 20.4896 110.352 19.0781 111.008 18.0312C111.669 16.9844 112.643 16.3464 113.93 16.1172C114.659 15.987 115.151 15.8281 115.406 15.6406C115.661 15.4531 115.789 15.1953 115.789 14.8672H116.977C116.977 15.5182 116.828 16.026 116.531 16.3906C116.24 16.7552 115.771 17.013 115.125 17.1641L114.047 17.4062C113.188 17.6094 112.542 17.9531 112.109 18.4375C111.682 18.9167 111.404 19.5573 111.273 20.3594C112.039 19.474 112.971 19.0312 114.07 19.0312ZM113.789 20.2188C113.081 20.2188 112.518 20.4583 112.102 20.9375C111.685 21.4115 111.477 22.0703 111.477 22.9141V23.0391C111.477 23.9453 111.685 24.6641 112.102 25.1953C112.523 25.7214 113.091 25.9844 113.805 25.9844C114.523 25.9844 115.091 25.7188 115.508 25.1875C115.924 24.6562 116.133 23.8802 116.133 22.8594C116.133 22.0625 115.922 21.4245 115.5 20.9453C115.083 20.4609 114.513 20.2188 113.789 20.2188ZM124.531 18.5469H125.977V27H124.531V20.8359L120.633 27H119.188V18.5469H120.633V24.7188L124.531 18.5469ZM135.203 27H133.758V23.3906H129.875V27H128.422V18.5469H129.875V22.2109H133.758V18.5469H135.203V27ZM141.039 27.1562C139.893 27.1562 138.961 26.7812 138.242 26.0312C137.523 25.276 137.164 24.2682 137.164 23.0078V22.7422C137.164 21.9036 137.323 21.1562 137.641 20.5C137.964 19.8385 138.411 19.3229 138.984 18.9531C139.562 18.5781 140.188 18.3906 140.859 18.3906C141.958 18.3906 142.812 18.7526 143.422 19.4766C144.031 20.2005 144.336 21.237 144.336 22.5859V23.1875H138.609C138.63 24.0208 138.872 24.6953 139.336 25.2109C139.805 25.7214 140.398 25.9766 141.117 25.9766C141.628 25.9766 142.06 25.8724 142.414 25.6641C142.768 25.4557 143.078 25.1797 143.344 24.8359L144.227 25.5234C143.518 26.612 142.456 27.1562 141.039 27.1562ZM140.859 19.5781C140.276 19.5781 139.786 19.7917 139.391 20.2188C138.995 20.6406 138.75 21.2344 138.656 22H142.891V21.8906C142.849 21.1562 142.651 20.5885 142.297 20.1875C141.943 19.7812 141.464 19.5781 140.859 19.5781ZM152.203 19.7188H149.367V27H147.922V19.7188H145.141V18.5469H152.203V19.7188Z" fill="white"/>
<defs>
<linearGradient id="paint0_linear" x1="18.7044" y1="-4.77973e-06" x2="163.514" y2="44.892" gradientUnits="userSpaceOnUse">
<stop stop-color="#C89AFC"/>
<stop offset="1" stop-color="#7C6AFA"/>
</linearGradient>
</defs>
</svg>
